<svg width="512" height="512" viewBox="0 0 512 512" fill="none" xmlns="http://www.w3.org/2000/svg">
  <defs>
    <linearGradient id="bgGradient" x1="0%" y1="0%" x2="100%" y2="100%">
      <stop offset="0%" style="stop-color:#7c3aed;stop-opacity:1" />
      <stop offset="50%" style="stop-color:#a855f7;stop-opacity:1" />
      <stop offset="100%" style="stop-color:#ec4899;stop-opacity:1" />
    </linearGradient>
    <linearGradient id="textGradient" x1="0%" y1="0%" x2="100%" y2="100%">
      <stop offset="0%" style="stop-color:#ffffff;stop-opacity:1" />
      <stop offset="100%" style="stop-color:#f8fafc;stop-opacity:0.9" />
    </linearGradient>
  </defs>
  
  <!-- Background with rounded corners -->
  <rect width="512" height="512" rx="96" ry="96" fill="url(#bgGradient)" />
  
  <!-- Subtle shadow/depth effect -->
  <rect x="8" y="8" width="496" height="496" rx="88" ry="88" fill="none" stroke="#ffffff" stroke-width="2" opacity="0.2" />
  
  <!-- Main Logo Container -->
  <rect x="96" y="96" width="320" height="320" rx="48" ry="48" fill="none" stroke="#ffffff" stroke-width="4" opacity="0.3" />
  
  <!-- "C" Letter -->
  <path d="M180 200 Q160 180 160 220 L160 292 Q160 332 180 312 Q200 292 220 292 L240 292" 
        stroke="url(#textGradient)" 
        stroke-width="24" 
        stroke-linecap="round" 
        stroke-linejoin="round" 
        fill="none" />
  
  <!-- "L" Letter -->
  <path d="M280 200 L280 292 L340 292" 
        stroke="url(#textGradient)" 
        stroke-width="24" 
        stroke-linecap="round" 
        stroke-linejoin="round" 
        fill="none" />
  
  <!-- Decorative Chakma-inspired elements -->
  <circle cx="200" cy="160" r="6" fill="#ffffff" opacity="0.6" />
  <circle cx="320" cy="160" r="6" fill="#ffffff" opacity="0.6" />
  <circle cx="260" cy="340" r="8" fill="#ffffff" opacity="0.4" />
  
  <!-- Subtle book/dictionary symbolism -->
  <rect x="140" y="360" width="80" height="6" rx="3" ry="3" fill="#ffffff" opacity="0.3" />
  <rect x="160" y="376" width="60" height="4" rx="2" ry="2" fill="#ffffff" opacity="0.2" />
  <rect x="280" y="360" width="80" height="6" rx="3" ry="3" fill="#ffffff" opacity="0.3" />
  <rect x="300" y="376" width="60" height="4" rx="2" ry="2" fill="#ffffff" opacity="0.2" />
</svg>
